<?xml version="1.0" standalone="no"?><!DOCTYPE svg PUBLIC "-//W3C//DTD SVG 1.1//EN" "http://www.w3.org/Graphics/SVG/1.1/DTD/svg11.dtd"><svg t="1741740290692" class="icon" viewBox="0 0 1024 1024" version="1.1" xmlns="http://www.w3.org/2000/svg" p-id="1872" xmlns:xlink="http://www.w3.org/1999/xlink" width="200" height="200"><path d="M34.133333 153.6h819.2v494.933333h-85.333333l-8.533333 102.4H34.133333z" fill="#C7CFFF" p-id="1873"></path><path d="M409.6 426.666667h221.866667v68.266666H409.6z" fill="#FFFFFF" p-id="1874"></path><path d="M819.2 469.333333m-170.666667 0a170.666667 170.666667 0 1 0 341.333334 0 170.666667 170.666667 0 1 0-341.333334 0Z" fill="#FFFFFF" p-id="1875"></path><path d="M1024 469.333333c-0.017067-113.117867-91.682133-204.782933-204.8-204.8-113.117867 0.017067-204.782933 91.682133-204.8 204.8 0.017067 113.117867 91.682133 204.782933 204.8 204.8 113.117867-0.017067 204.782933-91.682133 204.8-204.8h-34.133333a170.103467 170.103467 0 0 1-49.988267 120.6784A170.103467 170.103467 0 0 1 819.2 640a170.103467 170.103467 0 0 1-120.6784-49.988267A170.0352 170.0352 0 0 1 648.533333 469.333333a170.0352 170.0352 0 0 1 49.988267-120.6784A170.0352 170.0352 0 0 1 819.2 298.666667a170.0352 170.0352 0 0 1 120.6784 49.988266A170.103467 170.103467 0 0 1 989.866667 469.333333h34.133333z" fill="#3954FF" p-id="1876"></path><path d="M853.333333 861.866667a34.184533 34.184533 0 0 1-34.133333 34.133333 34.184533 34.184533 0 0 1-34.133333-34.133333V650.001067h-34.133334V861.866667a68.266667 68.266667 0 0 0 136.533334 0V650.001067h-34.133334V861.866667z" fill="#3954FF" p-id="1877"></path><path d="M68.266667 128a68.266667 68.266667 0 0 0-68.266667 68.266667v512a68.266667 68.266667 0 0 0 68.266667 68.266666h699.767466v-34.133333H68.266667a34.184533 34.184533 0 0 1-34.133334-34.133333v-512a34.184533 34.184533 0 0 1 34.133334-34.133334h31.266133v-34.133333H68.266667z" fill="#3954FF" p-id="1878"></path><path d="M887.466667 196.266667a68.266667 68.266667 0 0 0-68.266667-68.266667H71.133867v34.133333H819.2a34.184533 34.184533 0 0 1 34.133333 34.133334v92.398933h34.133334V196.266667zM341.333333 273.066667h-17.066666a34.167467 34.167467 0 0 1-34.133334 34.133333 34.167467 34.167467 0 0 1-34.133333-34.133333 34.167467 34.167467 0 0 1 34.133333-34.133334 34.167467 34.167467 0 0 1 34.133334 34.133334h34.133333c0-37.717333-30.549333-68.266667-68.266667-68.266667s-68.266667 30.549333-68.266666 68.266667 30.549333 68.266667 68.266666 68.266666 68.266667-30.549333 68.266667-68.266666h-17.066667" fill="#3954FF" p-id="1879"></path><path d="M563.2 273.066667h-17.066667a34.167467 34.167467 0 0 1-34.133333 34.133333 34.167467 34.167467 0 0 1-34.133333-34.133333 34.167467 34.167467 0 0 1 34.133333-34.133334 34.167467 34.167467 0 0 1 34.133333 34.133334h34.133334c0-37.717333-30.549333-68.266667-68.266667-68.266667s-68.266667 30.549333-68.266667 68.266667 30.549333 68.266667 68.266667 68.266666 68.266667-30.549333 68.266667-68.266666h-17.066667M648.533333 392.533333H409.6a34.133333 34.133333 0 0 0-34.133333 34.133334v68.266666a34.133333 34.133333 0 0 0 34.133333 34.133334h238.933333v-34.133334H409.6v-68.266666h238.933333v-34.133334M136.533333 238.933333h34.133334v-34.133333H136.533333zM136.533333 631.466667h443.733334v-34.133334H136.533333zM136.533333 699.733333h341.333334v-34.133333H136.533333z" fill="#3954FF" p-id="1880"></path><path d="M273.066667 324.266667v119.466666a34.133333 34.133333 0 0 0 34.133333 34.133334h85.333333v-34.133334h-85.333333v-119.466666h-34.133333M494.933333 409.6h34.133334v-85.333333h-34.133334zM204.8 930.133333h477.866667v-34.133333H204.8z" fill="#3954FF" p-id="1881"></path><path d="M310.766933 920.610133l75.741867-153.6-30.6176-15.086933-75.7248 153.6M607.300267 905.5232l-75.7248-153.6-30.6176 15.086933 75.741866 153.6" fill="#3954FF" p-id="1882"></path><path d="M85.333333 998.4h358.4v-34.133333H85.333333zM477.866667 998.4h34.133333v-34.133333h-34.133333z" fill="#C7CFFF" p-id="1883"></path><path d="M68.266667 699.733333h34.133333v-34.133333H68.266667zM68.266667 631.466667h34.133333v-34.133334H68.266667zM68.266667 238.933333h34.133333v-34.133333H68.266667zM802.133333 578.798933l141.841067-141.841066-24.132267-24.132267L802.133333 530.5344l-66.5088-66.5088-24.132266 24.132267z" fill="#3954FF" p-id="1884"></path><path d="M512 273.066667m-34.133333 0a34.133333 34.133333 0 1 0 68.266666 0 34.133333 34.133333 0 1 0-68.266666 0Z" fill="#FFFFFF" p-id="1885"></path><path d="M290.133333 273.066667m-34.133333 0a34.133333 34.133333 0 1 0 68.266667 0 34.133333 34.133333 0 1 0-68.266667 0Z" fill="#FFFFFF" p-id="1886"></path><path d="M85.333333 307.2h85.333334v221.866667H85.333333z" fill="#FFFFFF" p-id="1887"></path></svg>