<?xml version="1.0" standalone="no"?><!DOCTYPE svg PUBLIC "-//W3C//DTD SVG 1.1//EN" "http://www.w3.org/Graphics/SVG/1.1/DTD/svg11.dtd"><svg t="1741740285924" class="icon" viewBox="0 0 1024 1024" version="1.1" xmlns="http://www.w3.org/2000/svg" p-id="1730" xmlns:xlink="http://www.w3.org/1999/xlink" width="200" height="200"><path d="M669.013333 860.16c0-13.653333-6.826667-20.48-20.48-20.48h-273.066666c-13.653333 0-20.48 13.653333-20.48 20.48V955.733333H157.013333v68.266667h709.973334v-68.266667H669.013333v-95.573333zM955.733333 0H68.266667C27.306667 0 0 34.133333 0 68.266667v662.186666c0 40.96 27.306667 68.266667 68.266667 68.266667h887.466666c34.133333 0 68.266667-34.133333 68.266667-68.266667V68.266667c0-34.133333-27.306667-68.266667-68.266667-68.266667z m0 709.973333c0 13.653333-6.826667 20.48-20.48 20.48H88.746667c-13.653333 0-20.48-13.653333-20.48-20.48v-614.4c0-13.653333 6.826667-27.306667 20.48-27.306666h846.506666c13.653333 0 20.48 13.653333 20.48 27.306666v614.4z m-225.28-47.786666h122.88V293.546667h-122.88v368.64z m-191.146666 0h122.88V177.493333H539.306667v484.693334z m-361.813334 0h122.88V518.826667H177.493333v143.36z m163.84 0h122.88V402.773333H341.333333v259.413334z" fill="#333333" p-id="1731"></path></svg>