<?xml version="1.0" standalone="no"?><!DOCTYPE svg PUBLIC "-//W3C//DTD SVG 1.1//EN" "http://www.w3.org/Graphics/SVG/1.1/DTD/svg11.dtd"><svg t="1741740259718" class="icon" viewBox="0 0 1024 1024" version="1.1" xmlns="http://www.w3.org/2000/svg" p-id="1586" xmlns:xlink="http://www.w3.org/1999/xlink" width="200" height="200"><path d="M783.392 935.36H240.616c-21.36 0-38.784 40.312-38.784 40.312V1016h620.304v-40.328c0.008-22.192-17.384-40.312-38.744-40.312z" fill="#00C9ED" p-id="1587"></path><path d="M899.672 8H124.28C60.096 8 8 62.2 8 128.952v564.496C8 760.208 60.096 814.4 124.28 814.4h271.392v40.32c0 22.232 17.416 40.312 38.776 40.312h155.088c21.36 0 38.752-20.792 38.752-40.312v-40.32h271.392c64.24 0 116.328-54.176 116.328-120.952V128.952C1016 62.2 963.912 8 899.672 8zM124.28 701.128c-21.36 0-38.752-18.112-38.752-40.328V128.952c0-22.192 17.392-40.312 38.752-40.312h775.416c21.328 0 38.752 18.12 38.752 40.312V660.8c0 22.216-17.424 40.328-38.752 40.328H124.28z" fill="#0286E2" p-id="1588"></path><path d="M794.736 198.608l-127.68 132.768L578.16 238.92a37.96 37.96 0 0 0-32.552-11.464c-11.952 1.68-22.512 9.072-28.504 19.968L401.856 457.16l-47.72-124.08c-4.832-12.576-15.424-21.792-28.208-24.496-12.968-2.752-25.992 1.392-35.192 10.984L174.4 440.52c-15.104 15.76-15.104 41.264 0 57.008 15.168 15.76 39.712 15.76 54.84 0l74.752-77.728 55.68 144.856c5.552 14.352 18.464 24.168 33.336 25.232 0.896 0.056 1.792 0.096 2.664 0.096 13.888 0 26.736-7.696 33.68-20.312l129.88-236.4 80.424 83.632a37.728 37.728 0 0 0 54.832 0l155.056-161.296c15.168-15.76 15.168-41.264 0-57.008-15.136-15.76-39.648-15.76-54.816-0.016v0.024h0.008z" fill="#00C9ED" p-id="1589"></path></svg>